<?xml version="1.0" encoding="utf-8"?>
<!-- Generator: Adobe Illustrator 19.0.0, SVG Export Plug-In . SVG Version: 6.00 Build 0)  -->
<svg version="1.1" id="圖層_1" xmlns="http://www.w3.org/2000/svg" xmlns:xlink="http://www.w3.org/1999/xlink" x="0px" y="0px"
	 viewBox="45 -33.8 150 150" style="enable-background:new 45 -33.8 150 150;" xml:space="preserve">
<style type="text/css">
	.st0{enable-background:new    ;}
</style>
<g class="st0">
	<path d="M70.4,85.7V-22.9C81.5-22.4,87-21,87-18.6c0,1.4-2.4,3-7.2,4.6v95.9c19-8.1,33.1-14.4,42.3-19l1.7,3.7
		C104.2,78.5,84.6,88.9,65,97.8c-0.1,4.3-0.9,6.4-2.3,6.4c-2,0-4.7-4.3-8-12.9C60.5,89.5,65.7,87.6,70.4,85.7z M128.1,34
		c3.3,5.2,7,10.4,11,15.4c12.3,15.6,29,29.2,50.3,40.8c-3.4,2.3-6.4,5.2-9.1,8.7c-22.1-13.9-39.2-30.1-51.4-48.6
		c-12.2-17.7-20.6-37.8-25.3-60.3l6-1c3.2,14.5,8.6,28.2,16.2,41.2c15.9-14.5,27.5-29.3,34.9-44.5c8.4,4.9,12.6,8.5,12.6,10.8
		c0,1.2-1.3,1.8-4,1.8c-0.2,0-1.4-0.1-3.5-0.3C158.3,9.2,145.7,21.2,128.1,34z"/>
</g>
</svg>
